<svg width="79" height="79" viewBox="0 0 79 79" fill="none" xmlns="http://www.w3.org/2000/svg">
<path d="M51.0209 29.625L51.5856 30.1898C55.9745 34.5786 58.169 36.7731 58.169 39.5C58.169 42.2269 55.9745 44.4214 51.5856 48.8102L51.0209 49.375" stroke="#E73728" stroke-width="1.5" stroke-linecap="round"/>
<path d="M43.7598 23.6025L39.5 39.5001L35.2403 55.3976" stroke="#E73728" stroke-width="1.5" stroke-linecap="round"/>
<path d="M27.9791 29.625L27.4144 30.1898C23.0255 34.5786 20.8311 36.7731 20.8311 39.5C20.8311 42.2269 23.0255 44.4214 27.4144 48.8102L27.9791 49.375" stroke="#E73728" stroke-width="1.5" stroke-linecap="round"/>
<path opacity="0.5" d="M6.58337 39.4999C6.58337 23.9829 6.58337 16.2243 11.4039 11.4038C16.2244 6.58325 23.983 6.58325 39.5 6.58325C55.0171 6.58325 62.7756 6.58325 67.5962 11.4038C72.4167 16.2243 72.4167 23.9829 72.4167 39.4999C72.4167 55.017 72.4167 62.7755 67.5962 67.5961C62.7756 72.4166 55.0171 72.4166 39.5 72.4166C23.983 72.4166 16.2244 72.4166 11.4039 67.5961C6.58337 62.7755 6.58337 55.017 6.58337 39.4999Z" stroke="#E73728" stroke-width="1.5"/>
</svg>
