<svg width="56" height="56" viewBox="0 0 56 56" fill="none" xmlns="http://www.w3.org/2000/svg">
<path d="M39.8409 16.9662C40.7139 16.8738 41.5652 17.0834 42.2311 17.6797C42.8149 18.2095 43.1595 18.9531 43.1863 19.7409C43.2413 21.2213 42.36 21.8418 41.4591 22.7997C43.5549 23.4765 44.5352 25.5663 43.1156 27.506C42.7179 28.0495 41.922 28.7753 41.4022 29.2214C43.4259 29.775 44.4269 31.7372 43.3076 33.6561C42.8667 34.3043 42.2111 34.8165 41.6837 35.3835C41.051 36.0636 40.5727 36.4285 39.6624 36.609C39.5332 36.6431 39.1564 36.6545 39.0164 36.6474C38.2431 36.6127 37.5174 36.2637 37.0074 35.6812C36.4791 35.0936 36.2124 34.3164 36.2687 33.5282C36.3745 32.1193 37.5383 31.1326 38.5675 30.2321C37.998 30.0049 37.5662 29.8242 37.1169 29.3846C36.5652 28.8452 36.2526 28.1073 36.2487 27.3358C36.2528 25.7097 37.7166 24.6318 38.8247 23.5323C38.4394 23.4288 38.1602 23.3195 37.8243 23.0976C37.1547 22.6638 36.6922 21.9743 36.5448 21.1902C36.1823 19.308 38.0747 17.2952 39.8409 16.9662ZM39.3822 29.0413C39.4833 29.0212 39.8352 28.947 39.9109 28.8845C40.8607 28.1 42.8159 26.6916 42.5384 25.2989C42.4468 24.8395 42.0894 24.405 41.7336 24.18C41.4378 23.9971 41.095 23.9047 40.7474 23.9143C39.5977 24.1086 38.913 25.2049 38.0951 25.9583C37.6629 26.3563 37.3776 27.03 37.475 27.6256C37.5468 28.0605 37.7902 28.4483 38.1508 28.7018C38.5242 28.9679 38.9286 29.0585 39.3822 29.0413ZM39.5415 35.418C40.3463 35.2016 40.8411 34.5066 41.4209 33.947C41.6948 33.6826 42.2235 33.1488 42.3862 32.8175C43.0467 31.4733 41.9311 30.248 40.5589 30.3608C39.6933 30.578 39.1128 31.3944 38.4768 31.9796C37.8278 32.5769 37.257 33.2841 37.5227 34.2419C37.6428 34.6646 37.9294 35.0205 38.3168 35.228C38.7367 35.455 39.0774 35.4704 39.5415 35.418ZM39.7391 22.3565C40.4603 22.1426 40.5333 21.9316 41.0645 21.5093C42.038 20.7354 42.44 18.9774 41.1035 18.3094C40.7524 18.1304 40.3556 18.0611 39.9646 18.1104C39.2411 18.3042 38.3022 19.1211 37.9713 19.7799C37.2143 21.287 38.1888 22.4472 39.7391 22.3565Z" fill="#37474F"/>
<path d="M29.3042 10.6935C29.523 10.4871 29.8454 10.096 30.0666 9.92728C30.5084 9.59018 31.6892 10.388 31.9459 10.7554C32.1144 10.9967 31.8387 11.7646 31.7545 12.0556C32.4907 12.9324 32.7492 13.3186 33.0734 14.3997C33.6138 14.4715 33.8108 14.5378 34.3009 14.7366C34.4829 15.1708 34.6229 16.1306 34.3525 16.5541C34.0885 16.9674 33.5317 17.0274 33.091 17.1241C32.6651 18.2579 32.5169 18.5443 31.7519 19.4934C32.2264 20.988 31.932 21.0008 30.6011 21.648C29.9826 21.7379 29.749 21.28 29.3595 20.853C28.3631 21.0064 27.6564 21.036 26.6685 20.83C26.4557 21.0278 26.0777 21.492 25.8623 21.6049C25.3762 21.8595 24.2634 21.0886 24.0339 20.6833C23.8844 20.4193 24.1812 19.7638 24.2817 19.4774C23.5857 18.6961 23.2279 18.1313 22.9317 17.13C22.5868 17.0495 21.7103 16.9284 21.6219 16.5336C21.5181 16.0702 21.4867 15.2406 21.7023 14.811C21.8087 14.5988 22.653 14.4292 22.9089 14.3587C23.3549 13.2055 23.5099 12.9369 24.2765 11.9854C23.692 10.5492 24.1565 10.5071 25.3719 9.84607C25.9907 9.76863 26.2965 10.2563 26.6865 10.6722C27.5451 10.4433 28.4495 10.4507 29.3042 10.6935ZM26.3907 11.9638C25.9743 11.717 25.5785 11.2012 25.3606 11.1378C25.3299 11.5087 25.4582 11.888 25.5658 12.2422C25.3742 12.7498 24.8202 13.1479 24.534 13.6458C24.2353 14.1654 24.1405 14.7425 23.8896 15.2549C23.5167 15.4582 23.1606 15.5422 22.86 15.7287C22.9582 15.8929 23.6077 16.0691 23.8945 16.2698C24.1236 16.8265 24.2487 17.3945 24.5412 17.9161C24.7134 18.2231 25.4403 18.8076 25.5223 19.139C25.5757 19.3552 25.3112 20.0088 25.3587 20.2952C25.5911 20.2884 26.085 19.6967 26.3352 19.6051C26.5401 19.53 27.0885 19.6524 27.2935 19.7183C28.1235 19.9856 28.733 19.6819 29.5345 19.5915C29.8821 19.5523 30.3033 20.2124 30.6507 20.3521C30.6956 20.068 30.4965 19.5036 30.4366 19.1779L30.4497 19.1567C30.7422 18.6907 31.1128 18.4153 31.405 17.9657C31.7002 17.5112 31.8447 16.7358 32.1291 16.2921C32.2532 16.0987 33.1091 15.9247 33.2291 15.7505C32.9758 15.5255 32.4684 15.4923 32.1072 15.2419C31.8217 14.467 31.687 13.8865 31.1541 13.2286C30.9749 13.0073 30.5668 12.5809 30.4424 12.39C30.5163 11.8783 30.6369 11.5026 30.7305 11.0228C30.3498 11.3613 30.0053 11.7363 29.5682 11.9754C28.2933 11.5949 27.6758 11.5961 26.3907 11.9638Z" fill="#37474F"/>
<path d="M27.7138 13.4223C29.0065 13.2623 30.1816 14.187 30.33 15.4812C30.4784 16.7752 29.543 17.942 28.2477 18.0787C26.9687 18.2136 25.8199 17.2927 25.6734 16.015C25.5269 14.7373 26.4375 13.5803 27.7138 13.4223ZM28.3542 16.8449C28.9614 16.648 29.2936 15.9957 29.0957 15.3888C28.8977 14.7818 28.2449 14.4508 27.6383 14.6496C27.0332 14.8481 26.703 15.4992 26.9004 16.1046C27.0979 16.7101 27.7484 17.0414 28.3542 16.8449Z" fill="#37474F"/>
<path d="M12.6448 15.1608C13.9967 15.0565 15.7978 15.9347 16.7418 16.8882C18.9207 19.0889 18.6998 21.7328 18.6955 24.5852L18.6903 29.4989C19.3171 30.1336 19.884 30.5506 20.5257 31.2692C22.9175 33.9948 24.4697 37.3543 24.9951 40.9423C25.0975 41.624 25.369 43.4797 24.9758 44.1703C24.8349 44.4176 24.3133 44.3683 24.068 44.1589C23.8514 43.7693 23.9942 42.8695 23.9541 42.3826C23.6434 38.6142 22.2135 35.0193 19.7164 32.1626C18.8974 31.2257 18.4239 30.9043 17.5715 30.1265C17.456 29.4723 17.4871 28.5935 17.4879 27.9085L17.4941 24.1146C17.4931 22.9027 17.5416 21.3104 17.2423 20.1667C17.0188 19.3069 16.5932 18.513 16.0008 17.851C15.2688 17.0457 14.0617 16.3884 12.9563 16.3525C12.7589 16.3461 12.5106 16.3905 12.3735 16.5448C12.1514 16.7947 12.2666 22.5041 12.2679 23.2686C12.2855 25.0268 12.1981 25.8095 11.7146 27.5147C11.2485 29.1583 10.8387 30.8861 10.4394 32.5492C10.1924 33.5779 10.2679 34.9192 10.3704 35.9648C10.5111 37.191 10.9735 38.3863 11.3445 39.5644C11.8446 41.1523 12.3958 42.7322 12.8675 44.3321C12.7755 44.6589 12.6095 44.9646 12.4566 45.2661C11.7339 46.691 10.9866 48.1032 10.2512 49.5215C9.86938 50.2534 9.49143 50.9874 9.11742 51.7234C8.84366 52.2718 8.2462 54.0132 7.49386 53.6309C7.13292 53.4474 7.08715 53.1107 7.24481 52.7701C7.72284 51.7371 8.27502 50.7363 8.80133 49.7268L11.5996 44.2781C10.8513 41.8037 9.88234 39.2866 9.28384 36.792C8.56306 33.5983 9.68732 30.4618 10.493 27.3919C11.0397 25.3091 11.0687 24.8509 11.0645 22.7109L11.0549 18.6818C11.051 17.1403 10.6911 15.5245 12.6448 15.1608Z" fill="#37474F"/>
<path d="M19.9671 2.37157C20.4274 2.30208 21.6929 2.33273 22.2262 2.33391L26.4351 2.34088L33.0503 2.33722C33.9154 2.33644 34.7789 2.32436 35.6439 2.34652C38.492 2.41949 40.1219 4.92967 39.6142 7.61775C40.2613 6.8472 41.0047 6.08749 42.0269 5.88055C42.7855 5.73224 43.572 5.88979 44.2149 6.31887C44.874 6.75653 45.2937 7.40551 45.4509 8.17628C45.6125 8.93014 45.4578 9.71731 45.023 10.354C44.655 10.9039 42.2774 13.3088 41.7554 13.7384C41.6553 13.8207 41.5344 13.8715 41.4072 13.8943C41.2349 13.9251 41.0356 13.889 40.8972 13.7773C40.7854 13.687 40.7155 13.5697 40.7075 13.4244C40.6726 12.7911 43.1933 10.6597 43.7311 10.0576C44.0853 9.66104 44.3788 9.17618 44.3403 8.6251C44.3072 8.15178 44.0264 7.69852 43.6678 7.39813C43.3331 7.11774 42.8595 6.97222 42.4244 7.01942C41.4917 7.12053 40.2601 8.53328 39.7005 9.24017C39.6494 10.5488 39.6905 12.1366 39.6903 13.4664C39.6967 13.9693 39.7739 14.9518 39.5945 15.4019C39.3986 15.8933 38.5606 15.8201 38.5096 15.1508C38.4644 14.5589 38.4904 13.9513 38.4908 13.345L38.4935 8.91521C38.4933 7.22674 38.8016 4.89895 37.0842 3.93261C36.071 3.3625 34.6542 3.50466 33.5107 3.50697L29.7843 3.51173L23.5538 3.50805C22.4925 3.50741 20.5403 3.3812 19.5867 3.64188C18.8351 3.84732 18.0694 4.50889 17.7756 5.23992C17.3294 6.35015 17.523 12.2915 17.5294 13.8569C17.5312 14.2885 17.6361 15.1814 17.4005 15.5383C17.3242 15.6538 17.2035 15.7177 17.0687 15.7384C16.8819 15.767 16.6246 15.7278 16.4789 15.5984C16.3792 15.5098 16.3583 15.3102 16.3426 15.1857C16.2755 14.6567 16.3069 14.1011 16.3069 13.5682L16.3091 10.9039L16.3068 8.12558C16.3035 7.37401 16.2715 6.41528 16.4033 5.6927C16.5223 5.02179 16.8028 4.38993 17.2206 3.85169C17.9196 2.95844 18.8578 2.506 19.9671 2.37157Z" fill="#37474F"/>
<path d="M29.0245 7.05078C31.2961 7.37738 33.1458 8.31734 34.6573 10.0687C36.1717 11.8354 36.9213 14.1318 36.741 16.4518C36.56 18.7401 35.4847 20.8651 33.7483 22.3663C31.9748 23.9046 29.6556 24.6621 27.316 24.4672C24.9924 24.2989 22.8344 23.2021 21.3288 21.4242C19.7607 19.5749 19.0904 17.3626 19.292 14.9541C19.488 12.6795 20.5698 10.5731 22.3042 9.08866C22.3439 9.05464 22.3841 9.02106 22.4245 8.98798C22.9252 8.57908 23.9149 7.68669 24.404 8.40572C24.6335 8.7432 24.4006 8.95079 24.1584 9.16713C23.7668 9.51691 23.3434 9.78029 22.9563 10.1318C20.0347 12.7436 19.6151 17.1802 21.9714 20.3237C23.1867 21.9281 24.9919 22.9814 26.9867 23.25C28.9758 23.529 30.9933 22.9944 32.5833 21.7672C34.1687 20.5483 35.2146 18.7577 35.4974 16.778C35.9176 13.5119 34.2064 10.342 31.2453 8.90119C30.533 8.55715 27.3243 8.13682 29.0245 7.05078Z" fill="#37474F"/>
<path d="M38.8812 37.8359C39.8718 37.8381 39.7167 38.8023 39.7169 39.5042C39.7177 42.0813 38.9573 43.1895 36.6978 44.2368C34.7603 47.9928 32.6258 50.5333 28.0049 50.0758C27.9075 50.4275 26.6594 55.4827 25.842 53.17C25.7133 52.8061 26.9523 49.404 27.3176 48.953C27.5453 48.7989 28.6069 48.9419 28.9943 48.9497C32.3848 48.8031 33.6832 47.0774 35.2976 44.3386C33.8893 44.4016 32.2358 44.3064 30.7967 44.3446C29.5005 44.3406 28.2061 44.3641 26.911 44.3225C26.0002 44.2932 26.1285 43.3032 26.6607 43.194C27.0524 43.1137 27.9994 43.1532 28.4394 43.1534L33.3223 43.1556C34.2443 43.1558 35.2081 43.1976 36.1197 43.0796C36.9836 42.9678 37.7453 42.3635 38.1435 41.6026C38.6424 40.6495 38.3966 39.5429 38.4993 38.5178C38.5354 38.1567 38.602 38.0529 38.8812 37.8359Z" fill="#37474F"/>
<path d="M26.0496 25.6442C26.4408 25.6179 26.7761 25.7297 26.8038 26.1637C26.9296 28.1334 26.838 30.144 26.8585 32.1193C26.8642 32.6661 26.1732 32.6859 25.7775 32.7403L25.7469 32.8096C25.9148 33.1971 26.21 33.5557 26.4412 33.9144C26.9449 34.6955 27.55 35.4972 28.0045 36.3022C28.5291 35.3616 29.781 33.5447 30.4231 32.6456C29.9081 32.7216 29.2356 32.8333 29.199 32.1513C29.0947 30.2069 29.15 28.2222 29.171 26.2736C29.0672 25.7438 29.9178 25.4324 30.1584 25.8096C30.5014 26.3473 30.3629 28.3013 30.3586 28.8479C30.3612 29.6871 30.3858 30.6714 30.338 31.4974C30.904 31.4724 31.9455 31.3064 32.1064 32.0247C31.9429 32.7344 29.0794 36.7684 28.4891 37.6428C28.4055 37.7666 28.1447 37.9505 28.0085 38.0426C27.8435 37.9389 27.6117 37.779 27.506 37.6219C26.9062 36.7303 24.0778 32.7506 23.8928 32.0259C24.047 31.3036 25.1265 31.4656 25.6798 31.4992C25.5307 29.8524 25.703 27.8656 25.6717 26.1956C25.6664 25.9156 25.8462 25.8028 26.0496 25.6442Z" fill="#37474F"/>
<path d="M26.6414 7.06122C27.4576 6.98029 27.9102 7.99425 26.7341 8.29574C25.6457 8.35847 25.5506 7.31344 26.6414 7.06122Z" fill="#37474F"/>
</svg>
